<svg width="440" height="956" viewBox="0 0 440 956" fill="none" xmlns="http://www.w3.org/2000/svg">
<g clip-path="url(#clip0_2_30)">
<path d="M32.7266 438.824C32.7266 439.537 32.3469 440.196 31.7302 440.554L0.00362468 458.96C-1.3297 459.733 -3 458.771 -3 457.23V297.943C-3 297.23 -2.62038 296.571 -2.00362 296.213L29.7229 277.807C31.0563 277.034 32.7266 277.996 32.7266 279.537V438.824ZM378.463 242.556C378.463 243.276 378.076 243.94 377.449 244.296L64.5236 421.727C63.1903 422.483 61.5371 421.52 61.5371 419.987V261.222C61.5371 260.502 61.9242 259.837 62.5506 259.482L375.476 82.051C376.81 81.295 378.463 82.2581 378.463 83.7908V242.556ZM443 273.629C443 274.35 442.612 275.016 441.984 275.37L248.154 384.895C246.821 385.649 245.17 384.685 245.17 383.154V353.317C245.17 352.596 245.558 351.93 246.186 351.576L440.016 242.051C441.349 241.297 443 242.26 443 243.792V273.629ZM194.83 150.462C194.83 151.183 194.442 151.849 193.814 152.203L-0.0161023 261.727C-1.34935 262.481 -3 261.517 -3 259.986V230.149C-3 229.428 -2.61176 228.762 -1.9839 228.408L191.846 118.883C193.179 118.129 194.83 119.092 194.83 120.624V150.462ZM440.695 206.279C440.695 206.989 440.319 207.646 439.706 208.004L410.284 225.236C408.951 226.017 407.273 225.055 407.273 223.51V64.2346C407.273 63.5245 407.65 62.8676 408.263 62.5088L437.685 45.2772C439.018 44.4964 440.695 45.4579 440.695 47.003V206.279Z" fill="url(#paint0_linear_2_30)"/>
<rect x="140.8" y="943" width="158.4" height="5" rx="2.5" fill="#666666"/>
</g>
<defs>
<linearGradient id="paint0_linear_2_30" x1="220" y1="46.1537" x2="220" y2="459.236" gradientUnits="userSpaceOnUse">
<stop stop-color="#E61C44"/>
<stop offset="1" stop-color="#E61C44" stop-opacity="0"/>
</linearGradient>
<clipPath id="clip0_2_30">
<rect width="440" height="956" fill="white"/>
</clipPath>
</defs>
</svg>
