<svg width="440" height="956" viewBox="0 0 440 956" fill="none" xmlns="http://www.w3.org/2000/svg">
<g clip-path="url(#clip0_5_1792)">
<path d="M32.7266 255.824C32.7266 256.537 32.3469 257.196 31.7302 257.554L0.00362468 275.96C-1.3297 276.733 -3 275.771 -3 274.23V114.943C-3 114.23 -2.62038 113.571 -2.00362 113.213L29.7229 94.8072C31.0563 94.0337 32.7266 94.9957 32.7266 96.5372V255.824ZM378.463 59.5568C378.463 60.2769 378.076 60.9414 377.449 61.2966L64.5236 238.728C63.1903 239.484 61.5371 238.521 61.5371 236.988V78.223C61.5371 77.5029 61.9242 76.8384 62.5506 76.4832L375.476 -100.948C376.81 -101.704 378.463 -100.741 378.463 -99.2082V59.5568ZM443 90.63C443 91.3512 442.612 92.0165 441.984 92.3713L248.154 201.896C246.821 202.65 245.17 201.686 245.17 200.155V170.317C245.17 169.596 245.558 168.93 246.186 168.576L440.016 59.0515C441.349 58.2982 443 59.2614 443 60.7928V90.63ZM194.83 -32.5379C194.83 -31.8168 194.442 -31.1515 193.814 -30.7967L-0.0160906 78.7282C-1.34934 79.4816 -3 78.5184 -3 76.987V47.1497C-3 46.4286 -2.61176 45.7633 -1.9839 45.4085L191.846 -64.1164C193.179 -64.8698 194.83 -63.9065 194.83 -62.3752V-32.5379ZM440.695 23.2786C440.695 23.9887 440.319 24.6456 439.706 25.0044L410.284 42.236C408.951 43.0168 407.273 42.0553 407.273 40.5102V-118.765C407.273 -119.476 407.65 -120.132 408.263 -120.491L437.685 -137.723C439.018 -138.504 440.695 -137.542 440.695 -135.997V23.2786Z" fill="url(#paint0_linear_5_1792)" fill-opacity="0.1"/>
<path d="M32.7266 762.825C32.7266 763.538 32.3469 764.197 31.7302 764.555L0.00362468 782.961C-1.3297 783.734 -3 782.772 -3 781.231V621.944C-3 621.231 -2.62038 620.572 -2.00362 620.214L29.7229 601.808C31.0563 601.035 32.7266 601.997 32.7266 603.538V762.825ZM378.463 566.557C378.463 567.277 378.076 567.941 377.449 568.296L64.5236 745.728C63.1903 746.484 61.5371 745.521 61.5371 743.988V585.223C61.5371 584.503 61.9242 583.838 62.5506 583.483L375.476 406.052C376.81 405.296 378.463 406.259 378.463 407.792V566.557ZM443 597.63C443 598.351 442.612 599.016 441.984 599.371L248.155 708.896C246.822 709.649 245.171 708.686 245.171 707.155V677.318C245.171 676.596 245.559 675.931 246.187 675.576L440.016 566.051C441.349 565.298 443 566.261 443 567.793V597.63ZM194.83 474.463C194.83 475.184 194.442 475.849 193.814 476.204L-0.0161023 585.728C-1.34935 586.481 -3 585.518 -3 583.987V554.15C-3 553.428 -2.61176 552.763 -1.9839 552.408L191.846 442.883C193.179 442.13 194.83 443.093 194.83 444.625V474.463ZM440.695 530.279C440.695 530.99 440.319 531.646 439.706 532.005L410.285 549.237C408.952 550.018 407.274 549.056 407.274 547.511V388.235C407.274 387.525 407.651 386.868 408.264 386.51L437.685 369.277C439.018 368.496 440.695 369.458 440.695 371.003V530.279Z" fill="url(#paint1_linear_5_1792)" fill-opacity="0.24"/>
<rect x="140.8" y="943" width="158.4" height="5" rx="2.5" fill="#666666"/>
</g>
<defs>
<linearGradient id="paint0_linear_5_1792" x1="220" y1="-136.846" x2="220" y2="276.236" gradientUnits="userSpaceOnUse">
<stop stop-color="#E61C44"/>
<stop offset="1" stop-color="#E61C44" stop-opacity="0"/>
</linearGradient>
<linearGradient id="paint1_linear_5_1792" x1="220" y1="370.154" x2="220" y2="783.237" gradientUnits="userSpaceOnUse">
<stop stop-color="#E61C44"/>
<stop offset="1" stop-color="#E61C44" stop-opacity="0"/>
</linearGradient>
<clipPath id="clip0_5_1792">
<rect width="440" height="956" fill="white"/>
</clipPath>
</defs>
</svg>
